<svg width="556" height="99" viewBox="0 0 556 99" fill="none" xmlns="http://www.w3.org/2000/svg">
<rect x="133.817" width="94.8438" height="97.2757" rx="17.0232" fill="#313131"/>
<g clip-path="url(#clip0_720_123)">
<path d="M180.5 87C201.211 87 218 70.2107 218 49.5C218 28.7893 201.211 12 180.5 12C159.789 12 143 28.7893 143 49.5C143 70.2107 159.789 87 180.5 87Z" fill="#26A17B"/>
<path fill-rule="evenodd" clip-rule="evenodd" d="M185.005 52.742V52.7374C184.747 52.7561 183.418 52.8358 180.453 52.8358C178.086 52.8358 176.42 52.7655 175.834 52.7374V52.7444C166.721 52.3436 159.92 50.7569 159.92 48.8584C159.92 46.9624 166.721 45.3756 175.834 44.9678V51.1647C176.429 51.2069 178.135 51.3077 180.493 51.3077C183.322 51.3077 184.74 51.1905 185.005 51.167V44.9725C194.098 45.378 200.884 46.9647 200.884 48.8584C200.884 50.7569 194.098 52.3389 185.005 52.742V52.742ZM185.005 44.328V38.7827H197.694V30.3264H163.145V38.7827H175.834V44.3256C165.521 44.7991 157.766 46.8428 157.766 49.2897C157.766 51.7366 165.521 53.778 175.834 54.2538V72.0241H185.005V54.2491C195.301 53.7756 203.037 51.7342 203.037 49.2897C203.037 46.8452 195.301 44.8038 185.005 44.328" fill="white"/>
</g>
<rect x="0.862216" y="2.58658" width="93.1193" height="95.5512" rx="16.161" stroke="#04c762" stroke-width="1.72443" stroke-dasharray="6.9 6.9"/>
<rect x="264.187" width="94.8438" height="97.2757" rx="17.0232" fill="#313131"/>
<rect x="394.555" width="94.8438" height="97.2757" rx="17.0232" fill="#313131"/>
<circle cx="537.755" cy="48.9422" r="18.0047" fill="#313131"/>
<path d="M535.998 42.5141L534.511 44.1277L539.533 49.1984L534.702 54.4511L536.248 56.0087L542.578 49.1421L535.998 42.5141Z" fill="#9E3E09"/>
<path d="M45.5605 63.0539V40.959H48.5449V63.0539H45.5605ZM35.9966 53.4899V50.523H58.1089V53.4899H35.9966Z" fill="#04c762"/>
<path d="M311.5 87C332.211 87 349 70.2107 349 49.5C349 28.7893 332.211 12 311.5 12C290.789 12 274 28.7893 274 49.5C274 70.2107 290.789 87 311.5 87Z" fill="#627EEA"/>
<path d="M312.666 21.375V42.1641L330.237 50.0156L312.666 21.375Z" fill="white" fill-opacity="0.602"/>
<path d="M312.667 21.375L295.094 50.0156L312.667 42.1641V21.375Z" fill="white"/>
<path d="M312.666 63.488V77.6138L330.249 53.288L312.666 63.488Z" fill="white" fill-opacity="0.602"/>
<path d="M312.667 77.6138V63.4856L295.094 53.288L312.667 77.6138Z" fill="white"/>
<path d="M312.666 60.2182L330.237 50.0158L312.666 42.1689V60.2182Z" fill="white" fill-opacity="0.2"/>
<path d="M295.094 50.0158L312.667 60.2182V42.1689L295.094 50.0158Z" fill="white" fill-opacity="0.602"/>
<g clip-path="url(#clip1_720_123)">
<path d="M441.5 87C462.211 87 479 70.2107 479 49.5C479 28.7893 462.211 12 441.5 12C420.789 12 404 28.7893 404 49.5C404 70.2107 420.789 87 441.5 87Z" fill="#F4B731"/>
<path fill-rule="evenodd" clip-rule="evenodd" d="M425.743 30.75H441.099C450.439 30.75 457.52 35.7094 460.154 42.9234H464.938V47.2852H461.162C461.234 47.9742 461.272 48.6773 461.272 49.3898V49.4977C461.272 50.2992 461.225 51.0914 461.131 51.8648H464.938V56.2242H460.063C457.36 63.3398 450.336 68.25 441.102 68.25H425.743V56.2242H420.406V51.8648H425.743V47.2852H420.406V42.9258H425.743V30.75V30.75ZM430.034 56.2242V64.3383H441.097C447.927 64.3383 452.998 61.0875 455.359 56.2242H430.034V56.2242ZM456.673 51.8648H430.034V47.2852H456.683C456.779 48.0047 456.83 48.743 456.83 49.4977V49.6031C456.83 50.3742 456.777 51.1266 456.673 51.8625V51.8648ZM441.102 34.6523C447.959 34.6523 453.048 37.9898 455.394 42.9211H430.034V34.6547H441.097L441.102 34.6523Z" fill="white"/>
</g>
<defs>
<clipPath id="clip0_720_123">
<rect width="75" height="75" fill="white" transform="translate(143 12)"/>
</clipPath>
<clipPath id="clip1_720_123">
<rect width="75" height="75" fill="white" transform="translate(404 12)"/>
</clipPath>
</defs>
</svg>
