<svg width="300" height="380" viewBox="0 0 300 380" fill="none" xmlns="http://www.w3.org/2000/svg">
<g clip-path="url(#clip0_524_2810)">
<path d="M211.571 67.689C210.932 64.2163 213.255 60.8751 216.756 60.4063C239.292 57.3892 262.253 58.8977 284.193 64.8634C306.063 70.8098 326.403 81.0442 343.958 94.9042C346.77 97.1239 347.008 101.257 344.583 103.901L317.209 133.745C314.898 136.266 311.017 136.487 308.304 134.412C296.818 125.631 283.63 119.12 269.49 115.275C255.368 111.435 240.618 110.343 226.091 112.037C222.644 112.439 219.39 110.189 218.763 106.777L211.571 67.689Z" fill="#00ff22"/>
<path d="M122.487 115.022C119.806 112.645 119.624 108.508 122.197 106.008C141.127 87.6182 164.408 73.9532 190.023 66.1998C193.332 65.1981 196.765 67.1702 197.7 70.4963L208.474 108.824C209.433 112.235 207.399 115.758 204.025 116.853C188.214 121.985 173.796 130.492 161.845 141.742C159.355 144.086 155.474 144.271 152.918 142.006L122.487 115.022Z" fill="#00dd7d"/>
<path d="M80.4055 216.806C76.9049 216.765 74.0903 213.893 74.2792 210.397C75.9828 178.866 87.3198 148.516 106.857 123.195C108.947 120.486 112.837 120.076 115.532 122.175L147.706 147.243C150.531 149.443 150.951 153.539 148.826 156.426C137.006 172.482 129.981 191.374 128.525 211.025C128.266 214.516 125.411 217.325 121.911 217.284L80.4055 216.806Z" fill="#04c762"/>
<path d="M192.783 197.123V162.835H194.979V197.123H192.783ZM199.118 173.804C198.993 172.635 198.466 171.724 197.537 171.072C196.618 170.42 195.421 170.094 193.948 170.094C192.912 170.094 192.024 170.251 191.283 170.563C190.541 170.876 189.974 171.3 189.582 171.835C189.189 172.371 188.988 172.983 188.979 173.67C188.979 174.242 189.108 174.737 189.367 175.157C189.635 175.577 189.997 175.934 190.452 176.229C190.908 176.514 191.412 176.755 191.966 176.952C192.519 177.148 193.077 177.314 193.64 177.447L196.211 178.09C197.247 178.331 198.243 178.657 199.198 179.068C200.163 179.479 201.024 179.997 201.783 180.622C202.551 181.247 203.158 182.001 203.605 182.885C204.051 183.769 204.274 184.805 204.274 185.993C204.274 187.6 203.864 189.015 203.042 190.239C202.221 191.453 201.033 192.404 199.48 193.091C197.935 193.77 196.064 194.109 193.868 194.109C191.733 194.109 189.881 193.779 188.309 193.118C186.747 192.457 185.523 191.493 184.639 190.225C183.764 188.957 183.291 187.412 183.22 185.591H188.108C188.18 186.546 188.474 187.341 188.992 187.975C189.51 188.609 190.184 189.082 191.015 189.395C191.854 189.707 192.792 189.863 193.827 189.863C194.908 189.863 195.854 189.703 196.667 189.381C197.488 189.051 198.131 188.596 198.596 188.015C199.06 187.426 199.296 186.738 199.305 185.953C199.296 185.238 199.087 184.649 198.676 184.185C198.265 183.711 197.689 183.318 196.948 183.006C196.216 182.684 195.359 182.399 194.377 182.149L191.256 181.345C188.997 180.765 187.211 179.885 185.898 178.706C184.595 177.519 183.943 175.943 183.943 173.978C183.943 172.362 184.38 170.947 185.255 169.733C186.139 168.518 187.34 167.576 188.858 166.907C190.376 166.228 192.095 165.889 194.015 165.889C195.961 165.889 197.667 166.228 199.131 166.907C200.605 167.576 201.761 168.509 202.6 169.706C203.44 170.893 203.873 172.26 203.899 173.804H199.118ZM217.219 194.069C215.433 194.069 213.834 193.734 212.424 193.065C211.013 192.386 209.892 191.457 209.062 190.279C208.24 189.1 207.803 187.752 207.749 186.234H212.571C212.66 187.359 213.147 188.279 214.031 188.993C214.915 189.698 215.977 190.051 217.219 190.051C218.192 190.051 219.058 189.828 219.817 189.381C220.576 188.935 221.174 188.314 221.612 187.52C222.049 186.725 222.264 185.819 222.255 184.801C222.264 183.765 222.045 182.845 221.598 182.042C221.152 181.238 220.54 180.608 219.763 180.153C218.987 179.689 218.094 179.457 217.085 179.457C216.263 179.448 215.455 179.599 214.66 179.912C213.866 180.224 213.236 180.635 212.772 181.144L208.285 180.407L209.718 166.264H225.63V170.416H213.83L213.04 177.689H213.2C213.709 177.09 214.428 176.595 215.357 176.202C216.286 175.8 217.303 175.599 218.411 175.599C220.071 175.599 221.554 175.992 222.857 176.778C224.161 177.555 225.188 178.626 225.938 179.992C226.688 181.358 227.063 182.921 227.063 184.68C227.063 186.493 226.643 188.109 225.804 189.529C224.974 190.939 223.817 192.051 222.335 192.864C220.862 193.667 219.156 194.069 217.219 194.069ZM230.3 188.604V184.653L241.939 166.264H245.234V171.889H243.225L235.39 184.305V184.519H251.636V188.604H230.3ZM243.386 193.694V187.399L243.439 185.631V166.264H248.127V193.694H243.386ZM256.166 193.694L267.832 170.603V170.416H254.291V166.264H272.975V170.51L261.322 193.694H256.166ZM285.999 194.069C284.687 194.06 283.405 193.832 282.155 193.386C280.905 192.931 279.78 192.194 278.78 191.176C277.78 190.149 276.985 188.788 276.396 187.091C275.807 185.386 275.517 183.274 275.525 180.756C275.525 178.407 275.775 176.313 276.276 174.474C276.776 172.635 277.494 171.081 278.432 169.813C279.369 168.536 280.499 167.563 281.821 166.893C283.151 166.224 284.638 165.889 286.281 165.889C288.004 165.889 289.531 166.228 290.861 166.907C292.201 167.585 293.281 168.514 294.103 169.692C294.924 170.862 295.433 172.184 295.63 173.657H290.741C290.491 172.603 289.977 171.764 289.201 171.139C288.433 170.505 287.459 170.188 286.281 170.188C284.379 170.188 282.914 171.014 281.888 172.666C280.87 174.318 280.356 176.586 280.347 179.47H280.535C280.972 178.684 281.539 178.01 282.236 177.447C282.932 176.885 283.718 176.452 284.593 176.148C285.477 175.836 286.41 175.679 287.392 175.679C289 175.679 290.442 176.063 291.719 176.831C293.004 177.599 294.022 178.657 294.772 180.006C295.522 181.345 295.893 182.881 295.884 184.613C295.893 186.417 295.482 188.037 294.652 189.475C293.821 190.904 292.665 192.029 291.183 192.85C289.701 193.672 287.973 194.078 285.999 194.069ZM285.973 190.051C286.946 190.051 287.816 189.814 288.584 189.341C289.352 188.868 289.959 188.229 290.406 187.426C290.852 186.622 291.071 185.72 291.062 184.72C291.071 183.738 290.857 182.85 290.419 182.055C289.991 181.26 289.397 180.631 288.638 180.166C287.879 179.702 287.013 179.47 286.04 179.47C285.316 179.47 284.642 179.608 284.017 179.885C283.392 180.162 282.847 180.546 282.383 181.037C281.919 181.519 281.553 182.082 281.285 182.725C281.026 183.359 280.892 184.037 280.883 184.76C280.892 185.716 281.115 186.595 281.553 187.399C281.99 188.203 282.593 188.846 283.361 189.328C284.129 189.81 284.999 190.051 285.973 190.051Z" fill="white"/>
<path d="M176.415 230.511V220.153H180.036C180.758 220.153 181.353 220.278 181.821 220.527C182.29 220.773 182.639 221.105 182.868 221.524C183.098 221.938 183.212 222.398 183.212 222.904C183.212 223.349 183.133 223.717 182.975 224.007C182.819 224.297 182.614 224.526 182.358 224.695C182.105 224.863 181.83 224.988 181.533 225.069V225.17C181.85 225.19 182.169 225.301 182.489 225.504C182.809 225.706 183.077 225.996 183.293 226.374C183.509 226.751 183.617 227.213 183.617 227.759C183.617 228.279 183.499 228.746 183.263 229.16C183.027 229.575 182.654 229.904 182.145 230.147C181.636 230.389 180.973 230.511 180.157 230.511H176.415ZM177.669 229.398H180.157C180.977 229.398 181.558 229.24 181.902 228.923C182.25 228.602 182.423 228.215 182.423 227.759C182.423 227.409 182.334 227.085 182.155 226.788C181.977 226.488 181.722 226.249 181.392 226.07C181.061 225.888 180.67 225.797 180.218 225.797H177.669V229.398ZM177.669 224.705H179.996C180.373 224.705 180.714 224.631 181.017 224.482C181.324 224.334 181.567 224.125 181.746 223.855C181.928 223.585 182.019 223.268 182.019 222.904C182.019 222.449 181.86 222.063 181.543 221.746C181.226 221.426 180.724 221.266 180.036 221.266H177.669V224.705ZM188.387 230.673C187.686 230.673 187.07 230.506 186.541 230.172C186.015 229.838 185.604 229.371 185.307 228.771C185.014 228.171 184.867 227.469 184.867 226.667C184.867 225.858 185.014 225.151 185.307 224.548C185.604 223.944 186.015 223.476 186.541 223.142C187.07 222.808 187.686 222.641 188.387 222.641C189.088 222.641 189.702 222.808 190.228 223.142C190.757 223.476 191.169 223.944 191.462 224.548C191.759 225.151 191.907 225.858 191.907 226.667C191.907 227.469 191.759 228.171 191.462 228.771C191.169 229.371 190.757 229.838 190.228 230.172C189.702 230.506 189.088 230.673 188.387 230.673ZM188.387 229.6C188.92 229.6 189.358 229.464 189.702 229.191C190.046 228.918 190.3 228.559 190.466 228.113C190.631 227.668 190.713 227.186 190.713 226.667C190.713 226.148 190.631 225.664 190.466 225.216C190.3 224.767 190.046 224.405 189.702 224.128C189.358 223.852 188.92 223.713 188.387 223.713C187.854 223.713 187.416 223.852 187.072 224.128C186.728 224.405 186.474 224.767 186.308 225.216C186.143 225.664 186.061 226.148 186.061 226.667C186.061 227.186 186.143 227.668 186.308 228.113C186.474 228.559 186.728 228.918 187.072 229.191C187.416 229.464 187.854 229.6 188.387 229.6ZM193.444 230.511V222.742H194.597V223.916H194.678C194.82 223.531 195.076 223.219 195.447 222.98C195.818 222.741 196.236 222.621 196.701 222.621C196.789 222.621 196.898 222.623 197.03 222.626C197.161 222.629 197.261 222.634 197.328 222.641V223.855C197.288 223.845 197.195 223.83 197.05 223.81C196.909 223.786 196.759 223.774 196.6 223.774C196.222 223.774 195.885 223.853 195.589 224.012C195.295 224.167 195.063 224.383 194.891 224.659C194.722 224.932 194.638 225.244 194.638 225.595V230.511H193.444ZM198.458 230.511V222.742H199.611V223.916H199.692C199.834 223.531 200.09 223.219 200.461 222.98C200.832 222.741 201.25 222.621 201.715 222.621C201.803 222.621 201.913 222.623 202.044 222.626C202.176 222.629 202.275 222.634 202.343 222.641V223.855C202.302 223.845 202.209 223.83 202.064 223.81C201.923 223.786 201.773 223.774 201.614 223.774C201.237 223.774 200.899 223.853 200.603 224.012C200.309 224.167 200.077 224.383 199.905 224.659C199.736 224.932 199.652 225.244 199.652 225.595V230.511H198.458ZM206.392 230.673C205.691 230.673 205.075 230.506 204.546 230.172C204.02 229.838 203.609 229.371 203.312 228.771C203.019 228.171 202.872 227.469 202.872 226.667C202.872 225.858 203.019 225.151 203.312 224.548C203.609 223.944 204.02 223.476 204.546 223.142C205.075 222.808 205.691 222.641 206.392 222.641C207.093 222.641 207.707 222.808 208.233 223.142C208.762 223.476 209.174 223.944 209.467 224.548C209.764 225.151 209.912 225.858 209.912 226.667C209.912 227.469 209.764 228.171 209.467 228.771C209.174 229.371 208.762 229.838 208.233 230.172C207.707 230.506 207.093 230.673 206.392 230.673ZM206.392 229.6C206.925 229.6 207.363 229.464 207.707 229.191C208.051 228.918 208.305 228.559 208.471 228.113C208.636 227.668 208.719 227.186 208.719 226.667C208.719 226.148 208.636 225.664 208.471 225.216C208.305 224.767 208.051 224.405 207.707 224.128C207.363 223.852 206.925 223.713 206.392 223.713C205.859 223.713 205.421 223.852 205.077 224.128C204.733 224.405 204.479 224.767 204.313 225.216C204.148 225.664 204.066 226.148 204.066 226.667C204.066 227.186 204.148 227.668 204.313 228.113C204.479 228.559 204.733 228.918 205.077 229.191C205.421 229.464 205.859 229.6 206.392 229.6ZM212.945 230.511L210.578 222.742H211.832L213.511 228.69H213.592L215.251 222.742H216.526L218.164 228.67H218.245L219.924 222.742H221.179L218.812 230.511H217.638L215.939 224.543H215.818L214.118 230.511H212.945ZM229.348 230.673C228.62 230.673 227.993 230.501 227.467 230.157C226.941 229.813 226.536 229.339 226.253 228.736C225.97 228.132 225.828 227.443 225.828 226.667C225.828 225.878 225.973 225.182 226.263 224.578C226.557 223.971 226.965 223.498 227.487 223.157C228.013 222.813 228.627 222.641 229.328 222.641C229.874 222.641 230.367 222.742 230.805 222.945C231.243 223.147 231.602 223.43 231.882 223.794C232.162 224.158 232.336 224.583 232.403 225.069H231.21C231.119 224.715 230.916 224.401 230.603 224.128C230.292 223.852 229.874 223.713 229.348 223.713C228.883 223.713 228.475 223.835 228.124 224.078C227.777 224.317 227.506 224.656 227.31 225.094C227.118 225.529 227.022 226.04 227.022 226.627C227.022 227.227 227.116 227.749 227.305 228.194C227.497 228.639 227.767 228.985 228.114 229.231C228.465 229.477 228.876 229.6 229.348 229.6C229.659 229.6 229.94 229.546 230.193 229.439C230.446 229.331 230.66 229.176 230.835 228.973C231.011 228.771 231.135 228.528 231.21 228.245H232.403C232.336 228.704 232.169 229.117 231.902 229.484C231.639 229.848 231.29 230.138 230.856 230.354C230.424 230.566 229.922 230.673 229.348 230.673ZM236.149 230.693C235.657 230.693 235.21 230.6 234.809 230.415C234.408 230.226 234.089 229.954 233.853 229.6C233.617 229.243 233.499 228.811 233.499 228.306C233.499 227.861 233.587 227.5 233.762 227.223C233.937 226.943 234.172 226.724 234.465 226.566C234.758 226.407 235.082 226.289 235.436 226.212C235.793 226.131 236.153 226.067 236.513 226.02C236.985 225.959 237.368 225.913 237.661 225.883C237.958 225.849 238.174 225.794 238.309 225.716C238.447 225.639 238.516 225.504 238.516 225.312V225.271C238.516 224.772 238.38 224.384 238.106 224.108C237.837 223.831 237.427 223.693 236.877 223.693C236.308 223.693 235.861 223.818 235.537 224.067C235.214 224.317 234.986 224.583 234.854 224.867L233.722 224.462C233.924 223.99 234.194 223.622 234.531 223.359C234.871 223.093 235.242 222.908 235.643 222.803C236.048 222.695 236.446 222.641 236.837 222.641C237.086 222.641 237.373 222.672 237.697 222.732C238.024 222.79 238.339 222.909 238.643 223.091C238.949 223.273 239.204 223.548 239.406 223.916C239.609 224.283 239.71 224.775 239.71 225.393V230.511H238.516V229.459H238.455C238.374 229.627 238.24 229.808 238.051 230C237.862 230.192 237.611 230.356 237.297 230.491C236.984 230.625 236.601 230.693 236.149 230.693ZM236.331 229.621C236.803 229.621 237.201 229.528 237.525 229.342C237.852 229.157 238.098 228.918 238.263 228.624C238.432 228.331 238.516 228.022 238.516 227.699V226.606C238.466 226.667 238.354 226.723 238.182 226.773C238.014 226.82 237.818 226.863 237.596 226.9C237.376 226.933 237.162 226.964 236.953 226.991C236.748 227.014 236.581 227.035 236.453 227.051C236.142 227.092 235.852 227.158 235.583 227.249C235.316 227.336 235.101 227.469 234.935 227.648C234.774 227.824 234.693 228.063 234.693 228.366C234.693 228.781 234.846 229.095 235.153 229.307C235.463 229.516 235.856 229.621 236.331 229.621ZM241.603 233.424V222.742H242.756V223.976H242.898C242.986 223.842 243.107 223.67 243.262 223.461C243.421 223.248 243.647 223.059 243.94 222.894C244.237 222.726 244.638 222.641 245.144 222.641C245.798 222.641 246.374 222.805 246.873 223.132C247.372 223.459 247.762 223.922 248.042 224.523C248.321 225.123 248.461 225.831 248.461 226.647C248.461 227.469 248.321 228.183 248.042 228.786C247.762 229.386 247.374 229.852 246.878 230.182C246.383 230.509 245.811 230.673 245.164 230.673C244.665 230.673 244.265 230.59 243.965 230.425C243.665 230.256 243.434 230.066 243.272 229.853C243.111 229.637 242.986 229.459 242.898 229.317H242.797V233.424H241.603ZM242.777 226.627C242.777 227.213 242.863 227.731 243.035 228.179C243.207 228.624 243.458 228.973 243.788 229.226C244.119 229.476 244.523 229.6 245.002 229.6C245.501 229.6 245.917 229.469 246.251 229.206C246.588 228.94 246.841 228.582 247.01 228.134C247.182 227.682 247.268 227.18 247.268 226.627C247.268 226.08 247.184 225.588 247.015 225.15C246.85 224.708 246.599 224.359 246.261 224.103C245.928 223.843 245.508 223.713 245.002 223.713C244.517 223.713 244.109 223.836 243.778 224.083C243.448 224.325 243.198 224.666 243.03 225.104C242.861 225.539 242.777 226.047 242.777 226.627ZM252.283 230.693C251.791 230.693 251.344 230.6 250.943 230.415C250.542 230.226 250.223 229.954 249.987 229.6C249.751 229.243 249.633 228.811 249.633 228.306C249.633 227.861 249.721 227.5 249.896 227.223C250.071 226.943 250.306 226.724 250.599 226.566C250.892 226.407 251.216 226.289 251.57 226.212C251.928 226.131 252.287 226.067 252.647 226.02C253.119 225.959 253.502 225.913 253.795 225.883C254.092 225.849 254.308 225.794 254.443 225.716C254.581 225.639 254.65 225.504 254.65 225.312V225.271C254.65 224.772 254.514 224.384 254.241 224.108C253.971 223.831 253.561 223.693 253.012 223.693C252.442 223.693 251.995 223.818 251.671 224.067C251.348 224.317 251.12 224.583 250.989 224.867L249.856 224.462C250.058 223.99 250.328 223.622 250.665 223.359C251.005 223.093 251.376 222.908 251.778 222.803C252.182 222.695 252.58 222.641 252.971 222.641C253.221 222.641 253.507 222.672 253.831 222.732C254.158 222.79 254.473 222.909 254.777 223.091C255.083 223.273 255.338 223.548 255.54 223.916C255.743 224.283 255.844 224.775 255.844 225.393V230.511H254.65V229.459H254.589C254.509 229.627 254.374 229.808 254.185 230C253.996 230.192 253.745 230.356 253.431 230.491C253.118 230.625 252.735 230.693 252.283 230.693ZM252.465 229.621C252.937 229.621 253.335 229.528 253.659 229.342C253.986 229.157 254.232 228.918 254.397 228.624C254.566 228.331 254.65 228.022 254.65 227.699V226.606C254.6 226.667 254.488 226.723 254.316 226.773C254.148 226.82 253.952 226.863 253.73 226.9C253.511 226.933 253.296 226.964 253.087 226.991C252.882 227.014 252.715 227.035 252.587 227.051C252.277 227.092 251.987 227.158 251.717 227.249C251.45 227.336 251.235 227.469 251.069 227.648C250.908 227.824 250.827 228.063 250.827 228.366C250.827 228.781 250.98 229.095 251.287 229.307C251.597 229.516 251.99 229.621 252.465 229.621ZM260.893 230.673C260.165 230.673 259.538 230.501 259.012 230.157C258.486 229.813 258.081 229.339 257.798 228.736C257.515 228.132 257.373 227.443 257.373 226.667C257.373 225.878 257.518 225.182 257.808 224.578C258.102 223.971 258.51 223.498 259.032 223.157C259.558 222.813 260.172 222.641 260.873 222.641C261.419 222.641 261.912 222.742 262.35 222.945C262.788 223.147 263.147 223.43 263.427 223.794C263.707 224.158 263.881 224.583 263.948 225.069H262.755C262.663 224.715 262.461 224.401 262.148 224.128C261.837 223.852 261.419 223.713 260.893 223.713C260.428 223.713 260.02 223.835 259.669 224.078C259.322 224.317 259.051 224.656 258.855 225.094C258.663 225.529 258.567 226.04 258.567 226.627C258.567 227.227 258.661 227.749 258.85 228.194C259.042 228.639 259.312 228.985 259.659 229.231C260.01 229.477 260.421 229.6 260.893 229.6C261.204 229.6 261.485 229.546 261.738 229.439C261.991 229.331 262.205 229.176 262.38 228.973C262.556 228.771 262.68 228.528 262.755 228.245H263.948C263.881 228.704 263.714 229.117 263.447 229.484C263.184 229.848 262.835 230.138 262.401 230.354C261.969 230.566 261.467 230.673 260.893 230.673ZM265.408 230.511V222.742H266.602V230.511H265.408ZM266.015 221.448C265.782 221.448 265.582 221.368 265.413 221.21C265.248 221.051 265.165 220.861 265.165 220.638C265.165 220.416 265.248 220.225 265.413 220.067C265.582 219.908 265.782 219.829 266.015 219.829C266.248 219.829 266.447 219.908 266.612 220.067C266.78 220.225 266.865 220.416 266.865 220.638C266.865 220.861 266.78 221.051 266.612 221.21C266.447 221.368 266.248 221.448 266.015 221.448ZM271.881 222.742V223.754H267.856V222.742H271.881ZM269.029 220.881H270.223V228.285C270.223 228.623 270.271 228.875 270.369 229.044C270.47 229.209 270.598 229.321 270.754 229.378C270.912 229.432 271.079 229.459 271.254 229.459C271.386 229.459 271.494 229.452 271.578 229.439C271.662 229.422 271.73 229.408 271.78 229.398L272.023 230.47C271.942 230.501 271.829 230.531 271.684 230.561C271.539 230.595 271.355 230.612 271.133 230.612C270.796 230.612 270.465 230.539 270.142 230.394C269.821 230.249 269.555 230.029 269.343 229.732C269.133 229.435 269.029 229.061 269.029 228.609V220.881ZM274.161 233.424C273.958 233.424 273.778 233.407 273.62 233.373C273.461 233.343 273.352 233.313 273.291 233.282L273.594 232.23C273.884 232.304 274.141 232.331 274.363 232.311C274.586 232.291 274.783 232.192 274.955 232.013C275.13 231.838 275.29 231.553 275.435 231.158L275.658 230.551L272.785 222.742H274.08L276.224 228.933H276.305L278.45 222.742H279.744L276.447 231.644C276.298 232.045 276.115 232.377 275.895 232.64C275.676 232.906 275.422 233.104 275.132 233.232C274.845 233.36 274.522 233.424 274.161 233.424ZM284.756 233.424V222.742H285.909V223.976H286.05C286.138 223.842 286.259 223.67 286.414 223.461C286.573 223.248 286.799 223.059 287.092 222.894C287.389 222.726 287.79 222.641 288.296 222.641C288.95 222.641 289.527 222.805 290.026 223.132C290.525 223.459 290.914 223.922 291.194 224.523C291.474 225.123 291.614 225.831 291.614 226.647C291.614 227.469 291.474 228.183 291.194 228.786C290.914 229.386 290.526 229.852 290.031 230.182C289.535 230.509 288.963 230.673 288.316 230.673C287.817 230.673 287.418 230.59 287.117 230.425C286.817 230.256 286.586 230.066 286.425 229.853C286.263 229.637 286.138 229.459 286.05 229.317H285.949V233.424H284.756ZM285.929 226.627C285.929 227.213 286.015 227.731 286.187 228.179C286.359 228.624 286.61 228.973 286.94 229.226C287.271 229.476 287.675 229.6 288.154 229.6C288.653 229.6 289.07 229.469 289.403 229.206C289.741 228.94 289.993 228.582 290.162 228.134C290.334 227.682 290.42 227.18 290.42 226.627C290.42 226.08 290.336 225.588 290.167 225.15C290.002 224.708 289.751 224.359 289.414 224.103C289.08 223.843 288.66 223.713 288.154 223.713C287.669 223.713 287.261 223.836 286.93 224.083C286.6 224.325 286.35 224.666 286.182 225.104C286.013 225.539 285.929 226.047 285.929 226.627ZM296.407 230.673C295.658 230.673 295.012 230.507 294.469 230.177C293.93 229.843 293.514 229.378 293.22 228.781C292.93 228.181 292.785 227.483 292.785 226.687C292.785 225.892 292.93 225.19 293.22 224.583C293.514 223.973 293.922 223.498 294.444 223.157C294.97 222.813 295.584 222.641 296.285 222.641C296.69 222.641 297.089 222.709 297.484 222.844C297.878 222.978 298.237 223.198 298.561 223.501C298.885 223.801 299.143 224.199 299.335 224.695C299.527 225.19 299.623 225.8 299.623 226.525V227.031H293.635V225.999H298.409C298.409 225.561 298.322 225.17 298.146 224.826C297.974 224.482 297.728 224.211 297.408 224.012C297.091 223.813 296.717 223.713 296.285 223.713C295.81 223.713 295.398 223.831 295.051 224.067C294.707 224.3 294.443 224.604 294.257 224.978C294.072 225.352 293.979 225.753 293.979 226.181V226.869C293.979 227.456 294.08 227.953 294.282 228.361C294.488 228.766 294.773 229.074 295.137 229.287C295.501 229.496 295.924 229.6 296.407 229.6C296.72 229.6 297.003 229.557 297.256 229.469C297.512 229.378 297.733 229.243 297.919 229.064C298.104 228.882 298.247 228.656 298.349 228.387L299.502 228.71C299.38 229.101 299.176 229.445 298.89 229.742C298.603 230.035 298.249 230.265 297.828 230.43C297.406 230.592 296.933 230.673 296.407 230.673ZM301.154 230.511V222.742H302.307V223.916H302.388C302.53 223.531 302.786 223.219 303.157 222.98C303.528 222.741 303.946 222.621 304.411 222.621C304.499 222.621 304.608 222.623 304.74 222.626C304.871 222.629 304.971 222.634 305.038 222.641V223.855C304.998 223.845 304.905 223.83 304.76 223.81C304.618 223.786 304.468 223.774 304.31 223.774C303.932 223.774 303.595 223.853 303.298 224.012C303.005 224.167 302.772 224.383 302.6 224.659C302.432 224.932 302.348 225.244 302.348 225.595V230.511H301.154Z" fill="#04c762"/>
</g>
<defs>
<clipPath id="clip0_524_2810">
<rect width="300" height="380" rx="24" fill="white"/>
</clipPath>
</defs>
</svg>
