<svg width="887" height="346" viewBox="0 0 887 346" fill="none" xmlns="http://www.w3.org/2000/svg">
<rect x="62" width="147.936" height="149.001" rx="31.9286" fill="#00dd7d"/>
<g clip-path="url(#clip0_720_202)">
<path d="M135.968 127.716C165.358 127.716 189.183 103.891 189.183 74.5008C189.183 45.1109 165.358 21.2858 135.968 21.2858C106.578 21.2858 82.7529 45.1109 82.7529 74.5008C82.7529 103.891 106.578 127.716 135.968 127.716Z" fill="#F4B731"/>
<path fill-rule="evenodd" clip-rule="evenodd" d="M113.607 47.8933H135.399C148.653 47.8933 158.7 54.931 162.439 65.1682H169.227V71.3578H163.869C163.972 72.3356 164.025 73.3334 164.025 74.3445V74.4975C164.025 75.635 163.959 76.7591 163.826 77.8567H169.227V84.0429H162.309C158.474 94.1405 148.506 101.108 135.402 101.108H113.607V84.0429H106.034V77.8567H113.607V71.3578H106.034V65.1716H113.607V47.8933V47.8933ZM119.697 84.0429V95.5573H135.396C145.087 95.5573 152.285 90.9442 155.634 84.0429H119.697V84.0429ZM157.5 77.8567H119.697V71.3578H157.513C157.649 72.3789 157.723 73.4265 157.723 74.4975V74.6472C157.723 75.7414 157.646 76.809 157.5 77.8534V77.8567ZM135.402 53.431C145.134 53.431 152.355 58.1671 155.684 65.1649H119.697V53.4343H135.396L135.402 53.431Z" fill="white"/>
</g>
<rect x="231.222" width="147.936" height="149.001" rx="31.9286" fill="#04c762"/>
<g clip-path="url(#clip1_720_202)">
<path d="M305.19 127.716C315.715 127.716 326.003 124.595 334.754 118.747C343.506 112.9 350.326 104.589 354.354 94.8653C358.382 85.1415 359.436 74.4418 357.382 64.1191C355.329 53.7964 350.261 44.3144 342.818 36.8721C335.376 29.4299 325.894 24.3616 315.572 22.3083C305.249 20.255 294.549 21.3088 284.825 25.3365C275.102 29.3643 266.79 36.185 260.943 44.9361C255.096 53.6873 251.975 63.9759 251.975 74.5008C251.958 81.4939 253.322 88.4215 255.99 94.8857C258.659 101.35 262.578 107.223 267.523 112.168C272.468 117.113 278.341 121.032 284.805 123.7C291.269 126.368 298.197 127.733 305.19 127.716V127.716Z" fill="#2775CA"/>
<path d="M319.824 82.9281C319.824 75.1877 315.17 72.5028 305.857 71.3949C299.201 70.5096 297.875 68.7342 297.875 65.6332C297.875 62.5322 300.091 60.5294 304.522 60.5294C308.518 60.5294 310.734 61.8598 311.842 65.1881C311.961 65.5088 312.175 65.7852 312.456 65.9799C312.738 66.1746 313.072 66.2781 313.414 66.2766H316.96C317.165 66.2819 317.37 66.2454 317.56 66.1692C317.751 66.0931 317.925 65.9789 318.07 65.8336C318.215 65.6883 318.329 65.515 318.405 65.3242C318.482 65.1334 318.518 64.9291 318.513 64.7237V64.506C318.084 62.1028 316.874 59.9084 315.07 58.2637C313.267 56.6191 310.97 55.6162 308.537 55.4111V50.0896C308.537 49.2043 307.87 48.5415 306.762 48.319H303.434C302.548 48.319 301.886 48.9817 301.663 50.0896V55.2079C294.992 56.1174 290.778 60.5294 290.778 66.0734C290.778 73.3929 295.214 76.2762 304.527 77.384C310.734 78.4919 312.751 79.8029 312.751 83.3683C312.751 86.9337 309.65 89.3574 305.436 89.3574C299.67 89.3574 297.696 86.9385 297.009 83.5908C296.946 83.2169 296.753 82.877 296.465 82.6303C296.177 82.3837 295.811 82.246 295.432 82.2411H291.644C291.439 82.2365 291.235 82.2735 291.044 82.3499C290.854 82.4263 290.681 82.5405 290.536 82.6856C290.391 82.8308 290.276 83.0038 290.2 83.1943C290.124 83.3848 290.087 83.5888 290.091 83.794V84.0166C290.981 89.5606 294.527 93.5517 301.847 94.6596V99.9811C301.847 100.866 302.51 101.534 303.617 101.757H306.946C307.831 101.757 308.499 101.089 308.716 99.9811V94.6596C315.368 93.5517 319.805 88.893 319.805 82.9087L319.824 82.9281Z" fill="white"/>
<path d="M293.879 106.207C287.499 103.867 281.991 99.6246 278.101 94.0532C274.21 88.4818 272.123 81.8502 272.123 75.0546C272.123 68.2591 274.21 61.6275 278.101 56.056C281.991 50.4846 287.499 46.2422 293.879 43.9021C294.305 43.718 294.662 43.4055 294.902 43.0082C295.141 42.6109 295.25 42.1488 295.214 41.6864V38.5806C295.244 38.1732 295.125 37.7688 294.88 37.4423C294.634 37.1159 294.279 36.8895 293.879 36.8052C293.567 36.7726 293.253 36.8514 292.994 37.0277C284.921 39.5934 277.875 44.6612 272.875 51.4977C267.874 58.3342 265.179 66.5845 265.179 75.0546C265.179 83.5248 267.874 91.7751 272.875 98.6116C277.875 105.448 284.921 110.516 292.994 113.082C293.178 113.189 293.385 113.251 293.598 113.262C293.811 113.274 294.024 113.235 294.218 113.149C294.413 113.062 294.585 112.931 294.719 112.765C294.854 112.6 294.947 112.405 294.992 112.196C295.214 111.974 295.214 111.751 295.214 111.306V108.205C295.214 107.538 294.547 106.652 293.879 106.207ZM317.385 37.0277C317.201 36.9206 316.993 36.8588 316.78 36.8475C316.567 36.8361 316.354 36.8755 316.159 36.9624C315.964 37.0493 315.792 37.1812 315.658 37.3473C315.524 37.5134 315.431 37.7089 315.388 37.9178C315.17 38.1355 315.17 38.3581 315.17 38.8031V41.9041C315.207 42.3513 315.347 42.7839 315.577 43.1689C315.808 43.5538 316.124 43.8808 316.5 44.1246C322.88 46.4647 328.388 50.7072 332.279 56.2786C336.169 61.85 338.256 68.4817 338.256 75.2772C338.256 82.0727 336.169 88.7044 332.279 94.2758C328.388 99.8472 322.88 104.09 316.5 106.43C316.075 106.614 315.718 106.927 315.479 107.324C315.241 107.721 315.133 108.183 315.17 108.645V111.751C315.14 112.158 315.258 112.562 315.502 112.888C315.747 113.214 316.101 113.441 316.5 113.527C316.812 113.559 317.126 113.48 317.385 113.304C325.455 110.703 332.491 105.61 337.482 98.7565C342.473 91.9034 345.162 83.6439 345.162 75.1659C345.162 66.6879 342.473 58.4284 337.482 51.5754C332.491 44.7223 325.455 39.6289 317.385 37.0277V37.0277Z" fill="white"/>
</g>
<rect x="400.442" width="147.936" height="145.811" rx="31.9286" fill="#00dd7d"/>
<circle cx="474.41" cy="72.9058" r="51.62" fill="#375BD2"/>
<path d="M473.801 54.4648L489.77 63.632V82.0565L473.846 91.28L457.888 82.1353V63.7221L473.801 54.4648ZM473.801 40.9506L467.945 44.3291L451.998 53.5864L446.142 56.965V88.915L451.998 92.2935L467.967 101.461L473.823 104.839L479.68 101.461L495.593 92.226L501.449 88.8474V56.8524L495.593 53.4738L479.634 44.3291L473.778 40.9506H473.801Z" fill="white"/>
<rect x="569.664" width="147.936" height="149.001" rx="31.9286" fill="#04c762"/>
<g clip-path="url(#clip2_720_202)">
<path d="M643.632 127.716C673.022 127.716 696.847 103.891 696.847 74.5008C696.847 45.1109 673.022 21.2858 643.632 21.2858C614.242 21.2858 590.417 45.1109 590.417 74.5008C590.417 103.891 614.242 127.716 643.632 127.716Z" fill="#627EEA"/>
<path d="M645.289 34.5895V64.0905L670.224 75.2324L645.289 34.5895Z" fill="white" fill-opacity="0.602"/>
<path d="M645.288 34.5895L620.351 75.2324L645.288 64.0905V34.5895Z" fill="white"/>
<path d="M645.289 94.3506V114.396L670.24 79.8761L645.289 94.3506Z" fill="white" fill-opacity="0.602"/>
<path d="M645.288 114.396V94.3473L620.351 79.8761L645.288 114.396Z" fill="white"/>
<path d="M645.289 89.7105L670.224 75.2326L645.289 64.0974V89.7105Z" fill="white" fill-opacity="0.2"/>
<path d="M620.351 75.2326L645.288 89.7105V64.0974L620.351 75.2326Z" fill="white" fill-opacity="0.602"/>
</g>
<rect x="738.886" width="147.936" height="149.001" rx="31.9286" fill="#00dd7d"/>
<g clip-path="url(#clip3_720_202)">
<path d="M812.854 127.716C842.244 127.716 866.069 103.891 866.069 74.5008C866.069 45.1109 842.244 21.2858 812.854 21.2858C783.464 21.2858 759.639 45.1109 759.639 74.5008C759.639 103.891 783.464 127.716 812.854 127.716Z" fill="#26A17B"/>
<path fill-rule="evenodd" clip-rule="evenodd" d="M819.246 79.1015V79.0948C818.88 79.1215 816.994 79.2345 812.787 79.2345C809.428 79.2345 807.063 79.1348 806.231 79.0948V79.1048C793.3 78.5361 783.648 76.2844 783.648 73.5904C783.648 70.8997 793.3 68.6481 806.231 68.0694V76.8631C807.076 76.923 809.498 77.066 812.843 77.066C816.858 77.066 818.87 76.8997 819.246 76.8665V68.076C832.15 68.6514 841.779 70.9031 841.779 73.5904C841.779 76.2844 832.15 78.5294 819.246 79.1015V79.1015ZM819.246 67.1614V59.2922H837.252V47.2922H788.225V59.2922H806.231V67.1581C791.597 67.8299 780.592 70.7301 780.592 74.2024C780.592 77.6747 791.597 80.5716 806.231 81.2467V106.464H819.246V81.2401C833.857 80.5682 844.836 77.6713 844.836 74.2024C844.836 70.7334 833.857 67.8366 819.246 67.1614" fill="white"/>
</g>
<rect width="147.936" height="149.001" rx="31.9286" transform="matrix(-1 0 0 1 824.821 197)" fill="#04c762"/>
<g clip-path="url(#clip4_720_202)">
<path d="M750.854 324.716C780.244 324.716 804.069 300.891 804.069 271.501C804.069 242.111 780.244 218.286 750.854 218.286C721.464 218.286 697.639 242.111 697.639 271.501C697.639 300.891 721.464 324.716 750.854 324.716Z" fill="#F4B731"/>
<path fill-rule="evenodd" clip-rule="evenodd" d="M728.493 244.893H750.285C763.538 244.893 773.586 251.931 777.324 262.168H784.113V268.358H778.755C778.858 269.336 778.911 270.333 778.911 271.344V271.497C778.911 272.635 778.844 273.759 778.711 274.857H784.113V281.043H777.195C773.36 291.14 763.392 298.108 750.288 298.108H728.493V281.043H720.92V274.857H728.493V268.358H720.92V262.171H728.493V244.893V244.893ZM734.583 281.043V292.557H750.281C759.973 292.557 767.17 287.944 770.52 281.043H734.583V281.043ZM772.385 274.857H734.583V268.358H772.399C772.535 269.379 772.608 270.426 772.608 271.497V271.647C772.608 272.741 772.532 273.809 772.385 274.853V274.857ZM750.288 250.431C760.02 250.431 767.24 255.167 770.57 262.165H734.583V250.434H750.281L750.288 250.431Z" fill="white"/>
</g>
<rect width="147.936" height="149.001" rx="31.9286" transform="matrix(-1 0 0 1 655.6 197)" fill="#00dd7d"/>
<g clip-path="url(#clip5_720_202)">
<path d="M581.632 324.716C592.157 324.716 602.446 321.595 611.197 315.747C619.948 309.9 626.769 301.589 630.796 291.865C634.824 282.141 635.878 271.442 633.825 261.119C631.771 250.796 626.703 241.314 619.261 233.872C611.819 226.43 602.337 221.361 592.014 219.308C581.691 217.255 570.991 218.309 561.268 222.336C551.544 226.364 543.233 233.185 537.385 241.936C531.538 250.687 528.417 260.976 528.417 271.501C528.4 278.494 529.765 285.421 532.433 291.886C535.101 298.35 539.02 304.223 543.965 309.168C548.91 314.113 554.783 318.032 561.247 320.7C567.711 323.368 574.639 324.733 581.632 324.716V324.716Z" fill="#2775CA"/>
<path d="M596.266 279.928C596.266 272.188 591.612 269.503 582.3 268.395C575.643 267.51 574.317 265.734 574.317 262.633C574.317 259.532 576.533 257.529 580.965 257.529C584.96 257.529 587.176 258.86 588.284 262.188C588.403 262.509 588.618 262.785 588.899 262.98C589.18 263.174 589.514 263.278 589.856 263.277H593.402C593.608 263.282 593.812 263.245 594.003 263.169C594.194 263.093 594.367 262.979 594.512 262.834C594.658 262.688 594.772 262.515 594.848 262.324C594.924 262.133 594.961 261.929 594.955 261.724V261.506C594.527 259.103 593.317 256.908 591.513 255.264C589.709 253.619 587.412 252.616 584.98 252.411V247.09C584.98 246.204 584.312 245.541 583.204 245.319H579.876C578.991 245.319 578.328 245.982 578.105 247.09V252.208C571.434 253.117 567.221 257.529 567.221 263.073C567.221 270.393 571.657 273.276 580.969 274.384C587.176 275.492 589.194 276.803 589.194 280.368C589.194 283.934 586.093 286.357 581.879 286.357C576.112 286.357 574.138 283.938 573.452 280.591C573.388 280.217 573.196 279.877 572.907 279.63C572.619 279.384 572.254 279.246 571.874 279.241H568.086C567.881 279.236 567.677 279.273 567.487 279.35C567.296 279.426 567.123 279.54 566.978 279.686C566.833 279.831 566.719 280.004 566.642 280.194C566.566 280.385 566.529 280.589 566.534 280.794V281.016C567.424 286.561 570.97 290.552 578.289 291.659V296.981C578.289 297.866 578.952 298.534 580.06 298.756H583.388C584.274 298.756 584.941 298.089 585.159 296.981V291.659C591.811 290.552 596.247 285.893 596.247 279.909L596.266 279.928Z" fill="white"/>
<path d="M570.321 303.207C563.941 300.867 558.434 296.625 554.543 291.053C550.652 285.482 548.566 278.85 548.566 272.055C548.566 265.259 550.652 258.627 554.543 253.056C558.434 247.485 563.941 243.242 570.321 240.902C570.747 240.718 571.105 240.405 571.344 240.008C571.583 239.611 571.693 239.149 571.657 238.686V235.581C571.686 235.173 571.568 234.769 571.322 234.442C571.077 234.116 570.721 233.89 570.321 233.805C570.009 233.773 569.696 233.851 569.436 234.028C561.364 236.593 554.318 241.661 549.317 248.498C544.316 255.334 541.621 263.585 541.621 272.055C541.621 280.525 544.316 288.775 549.317 295.612C554.318 302.448 561.364 307.516 569.436 310.082C569.62 310.189 569.828 310.251 570.04 310.262C570.253 310.274 570.466 310.235 570.661 310.149C570.856 310.062 571.027 309.931 571.162 309.765C571.296 309.6 571.39 309.405 571.434 309.196C571.657 308.974 571.657 308.751 571.657 308.306V305.205C571.657 304.538 570.989 303.652 570.321 303.207ZM593.828 234.028C593.643 233.921 593.436 233.859 593.223 233.847C593.009 233.836 592.797 233.876 592.602 233.962C592.406 234.049 592.235 234.181 592.101 234.347C591.967 234.513 591.874 234.709 591.83 234.918C591.612 235.136 591.612 235.358 591.612 235.803V238.904C591.65 239.351 591.789 239.784 592.02 240.169C592.25 240.554 592.566 240.881 592.943 241.125C599.322 243.465 604.83 247.707 608.721 253.279C612.612 258.85 614.698 265.482 614.698 272.277C614.698 279.073 612.612 285.704 608.721 291.276C604.83 296.847 599.322 301.09 592.943 303.43C592.517 303.614 592.16 303.927 591.922 304.324C591.683 304.721 591.575 305.183 591.612 305.645V308.751C591.582 309.158 591.7 309.562 591.945 309.888C592.189 310.214 592.544 310.441 592.943 310.527C593.255 310.559 593.568 310.48 593.828 310.304C601.897 307.703 608.933 302.61 613.924 295.756C618.915 288.903 621.604 280.644 621.604 272.166C621.604 263.688 618.915 255.428 613.924 248.575C608.933 241.722 601.897 236.629 593.828 234.028V234.028Z" fill="white"/>
</g>
<rect width="147.936" height="145.811" rx="31.9286" transform="matrix(-1 0 0 1 486.379 197)" fill="#04c762"/>
<circle cx="412.411" cy="269.906" r="51.62" fill="#375BD2"/>
<path d="M411.802 251.465L427.771 260.632V279.056L411.847 288.28L395.889 279.135V260.722L411.802 251.465ZM411.802 237.95L405.946 241.329L389.999 250.586L384.143 253.965V285.915L389.999 289.293L405.968 298.461L411.824 301.839L417.68 298.461L433.594 289.226L439.45 285.847V253.852L433.594 250.474L417.635 241.329L411.779 237.95H411.802Z" fill="white"/>
<rect width="147.936" height="149.001" rx="31.9286" transform="matrix(-1 0 0 1 317.157 197)" fill="#00dd7d"/>
<g clip-path="url(#clip6_720_202)">
<path d="M243.19 324.716C272.579 324.716 296.405 300.891 296.405 271.501C296.405 242.111 272.579 218.286 243.19 218.286C213.8 218.286 189.975 242.111 189.975 271.501C189.975 300.891 213.8 324.716 243.19 324.716Z" fill="#627EEA"/>
<path d="M244.847 231.589V261.091L269.781 272.232L244.847 231.589Z" fill="white" fill-opacity="0.602"/>
<path d="M244.846 231.589L219.908 272.232L244.846 261.091V231.589Z" fill="white"/>
<path d="M244.847 291.351V311.396L269.798 276.876L244.847 291.351Z" fill="white" fill-opacity="0.602"/>
<path d="M244.846 311.396V291.347L219.908 276.876L244.846 311.396Z" fill="white"/>
<path d="M244.847 286.71L269.781 272.233L244.847 261.097V286.71Z" fill="white" fill-opacity="0.2"/>
<path d="M219.908 272.233L244.846 286.71V261.097L219.908 272.233Z" fill="white" fill-opacity="0.602"/>
</g>
<rect width="147.936" height="149.001" rx="31.9286" transform="matrix(-1 0 0 1 147.936 197)" fill="#04c762"/>
<g clip-path="url(#clip7_720_202)">
<path d="M73.9679 324.716C103.358 324.716 127.183 300.891 127.183 271.501C127.183 242.111 103.358 218.286 73.9679 218.286C44.5781 218.286 20.7529 242.111 20.7529 271.501C20.7529 300.891 44.5781 324.716 73.9679 324.716Z" fill="#26A17B"/>
<path fill-rule="evenodd" clip-rule="evenodd" d="M80.3601 276.101V276.095C79.9943 276.121 78.1084 276.234 73.9011 276.234C70.5419 276.234 68.1772 276.135 67.3457 276.095V276.105C54.4145 275.536 44.7626 273.284 44.7626 270.59C44.7626 267.9 54.4145 265.648 67.3457 265.069V273.863C68.1905 273.923 70.6118 274.066 73.9577 274.066C77.9721 274.066 79.9843 273.9 80.3601 273.866V265.076C93.2647 265.651 102.893 267.903 102.893 270.59C102.893 273.284 93.2647 275.529 80.3601 276.101V276.101ZM80.3601 264.161V256.292H98.3667V244.292H49.3391V256.292H67.3457V264.158C52.7116 264.83 41.7061 267.73 41.7061 271.202C41.7061 274.675 52.7116 277.572 67.3457 278.247V303.464H80.3601V278.24C94.971 277.568 105.95 274.671 105.95 271.202C105.95 267.733 94.971 264.836 80.3601 264.161" fill="white"/>
</g>
<defs>
<clipPath id="clip0_720_202">
<rect width="106.43" height="106.43" fill="white" transform="translate(82.7529 21.2858)"/>
</clipPath>
<clipPath id="clip1_720_202">
<rect width="106.43" height="106.43" fill="white" transform="translate(251.975 21.2858)"/>
</clipPath>
<clipPath id="clip2_720_202">
<rect width="106.43" height="106.43" fill="white" transform="translate(590.417 21.2858)"/>
</clipPath>
<clipPath id="clip3_720_202">
<rect width="106.43" height="106.43" fill="white" transform="translate(759.639 21.2858)"/>
</clipPath>
<clipPath id="clip4_720_202">
<rect width="106.43" height="106.43" fill="white" transform="translate(697.639 218.286)"/>
</clipPath>
<clipPath id="clip5_720_202">
<rect width="106.43" height="106.43" fill="white" transform="translate(528.417 218.286)"/>
</clipPath>
<clipPath id="clip6_720_202">
<rect width="106.43" height="106.43" fill="white" transform="translate(189.975 218.286)"/>
</clipPath>
<clipPath id="clip7_720_202">
<rect width="106.43" height="106.43" fill="white" transform="translate(20.7529 218.286)"/>
</clipPath>
</defs>
</svg>
