<svg width="262" height="228" viewBox="0 0 262 228" fill="none" xmlns="http://www.w3.org/2000/svg">
<line opacity="0.05" x1="21.7943" y1="221.248" x2="374.485" y2="221.126" stroke="#00dd7d" stroke-width="0.710075" stroke-dasharray="3.76 3.76"/>
<line opacity="0.05" x1="22.2368" y1="184.903" x2="374.485" y2="184.903" stroke="#00dd7d" stroke-width="0.710075" stroke-dasharray="3.76 3.76"/>
<line opacity="0.05" x1="21.7941" y1="148.123" x2="374.485" y2="147.796" stroke="#00dd7d" stroke-width="0.710075" stroke-dasharray="3.76 3.76"/>
<line opacity="0.05" x1="21.7944" y1="111.561" x2="374.485" y2="111.561" stroke="#00dd7d" stroke-width="0.710075" stroke-dasharray="3.76 3.76"/>
<line opacity="0.05" x1="21.7948" y1="74.9995" x2="374.485" y2="75.3229" stroke="#00dd7d" stroke-width="0.710075" stroke-dasharray="3.76 3.76"/>
<line opacity="0.05" x1="21.7942" y1="38.4374" x2="374.485" y2="38.2186" stroke="#00dd7d" stroke-width="0.710075" stroke-dasharray="3.76 3.76"/>
<line opacity="0.05" x1="23.0467" y1="0.863712" x2="375.737" y2="0.64491" stroke="#00dd7d" stroke-width="0.710075" stroke-dasharray="3.76 3.76"/>
<g opacity="0.7">
<path opacity="0.7" d="M3.51471 80.1241C2.98701 80.1241 2.53279 80.0473 2.15204 79.8937C1.77797 79.74 1.49074 79.5163 1.29035 79.2223C1.09663 78.9284 0.999775 78.5744 0.999775 78.1603C0.999775 77.8329 1.06657 77.5424 1.20017 77.2885C1.33376 77.028 1.5208 76.8176 1.76127 76.6573C2.00174 76.497 2.27895 76.3968 2.5929 76.3567V76.507C2.15872 76.4135 1.81137 76.2098 1.55086 75.8958C1.29703 75.5752 1.17011 75.1978 1.17011 74.7636C1.17011 74.3628 1.26363 74.0255 1.45066 73.7516C1.64437 73.471 1.91825 73.2573 2.27227 73.1103C2.6263 72.9567 3.04045 72.8799 3.51471 72.8799C3.99566 72.8799 4.4098 72.9567 4.75715 73.1103C5.11118 73.2573 5.38505 73.471 5.57877 73.7516C5.77248 74.0255 5.86934 74.3628 5.86934 74.7636C5.86934 75.0508 5.80922 75.318 5.68898 75.5652C5.57543 75.8056 5.41177 76.006 5.19802 76.1663C4.98427 76.3267 4.73377 76.4369 4.44654 76.497V76.3567C4.92081 76.4235 5.30156 76.6206 5.58879 76.9479C5.8827 77.2685 6.02965 77.6726 6.02965 78.1603C6.02965 78.5744 5.92946 78.9284 5.72906 79.2223C5.53535 79.5163 5.24812 79.74 4.86737 79.8937C4.4933 80.0473 4.04242 80.1241 3.51471 80.1241ZM3.51471 79.4428C4.0825 79.4428 4.51 79.3326 4.79723 79.1121C5.09114 78.8917 5.2381 78.5577 5.2381 78.1102C5.2381 77.6693 5.09114 77.342 4.79723 77.1282C4.51 76.9078 4.0825 76.7976 3.51471 76.7976C2.95361 76.7976 2.52611 76.9078 2.2322 77.1282C1.93828 77.342 1.79133 77.6693 1.79133 78.1102C1.79133 78.5577 1.93828 78.8917 2.2322 79.1121C2.52611 79.3326 2.95361 79.4428 3.51471 79.4428ZM3.51471 76.1162C3.84202 76.1162 4.11923 76.0661 4.34635 75.9659C4.58014 75.8591 4.76049 75.7088 4.88741 75.5151C5.01433 75.3213 5.07778 75.0942 5.07778 74.8337C5.07778 74.4329 4.93751 74.1223 4.65696 73.9019C4.38309 73.6748 4.00234 73.5612 3.51471 73.5612C3.02709 73.5612 2.64634 73.6748 2.37247 73.9019C2.0986 74.1223 1.96166 74.4329 1.96166 74.8337C1.96166 75.2345 2.0986 75.5485 2.37247 75.7756C2.64634 76.0027 3.02709 76.1162 3.51471 76.1162ZM9.5226 80.1241C8.71435 80.1241 8.09981 79.8135 7.67898 79.1923C7.25816 78.5711 7.04774 77.6726 7.04774 76.497C7.04774 75.7088 7.14126 75.0475 7.3283 74.5131C7.51533 73.972 7.79254 73.5646 8.15993 73.2907C8.534 73.0168 8.98822 72.8799 9.5226 72.8799C10.3375 72.8799 10.9521 73.1872 11.3662 73.8017C11.7871 74.4096 11.9975 75.3046 11.9975 76.487C11.9975 77.2752 11.9039 77.9398 11.7169 78.4809C11.5299 79.0219 11.2527 79.4328 10.8853 79.7133C10.5179 79.9872 10.0637 80.1241 9.5226 80.1241ZM9.5226 79.4127C10.0837 79.4127 10.4979 79.1756 10.765 78.7013C11.0389 78.2204 11.1759 77.4823 11.1759 76.487C11.1759 75.485 11.0389 74.7536 10.765 74.2927C10.4979 73.8251 10.0837 73.5913 9.5226 73.5913C8.96818 73.5913 8.55404 73.8251 8.28017 74.2927C8.00629 74.7602 7.86936 75.4917 7.86936 76.487C7.86936 77.4823 8.00629 78.2204 8.28017 78.7013C8.55404 79.1756 8.96818 79.4127 9.5226 79.4127Z" fill="#111218"/>
<path opacity="0.7" d="M3.75519 116.445C3.20076 116.445 2.7265 116.312 2.33239 116.045C1.94496 115.771 1.65105 115.377 1.45066 114.862C1.25027 114.348 1.15007 113.727 1.15007 112.999C1.15007 112.384 1.21353 111.843 1.34044 111.375C1.46736 110.908 1.65439 110.514 1.90155 110.193C2.1487 109.866 2.44929 109.619 2.80332 109.452C3.15735 109.285 3.55813 109.201 4.00568 109.201C4.31295 109.201 4.6269 109.261 4.94753 109.382C5.27484 109.502 5.56207 109.672 5.80922 109.893C5.8827 109.946 5.92612 110.013 5.93948 110.093C5.95951 110.166 5.95951 110.24 5.93948 110.313C5.91944 110.38 5.8827 110.437 5.82926 110.484C5.7825 110.53 5.72238 110.557 5.6489 110.564C5.57543 110.564 5.49861 110.534 5.41845 110.474C5.19134 110.28 4.95755 110.143 4.71707 110.063C4.4766 109.976 4.23279 109.933 3.98564 109.933C3.55145 109.933 3.18072 110.039 2.87345 110.253C2.57286 110.467 2.34241 110.791 2.1821 111.225C2.02846 111.653 1.95164 112.19 1.95164 112.838V113.77H1.86147C1.90155 113.389 2.01176 113.062 2.19212 112.788C2.37915 112.508 2.61628 112.294 2.90351 112.147C3.19074 112 3.51471 111.927 3.87542 111.927C4.28957 111.927 4.65696 112.02 4.97759 112.207C5.29822 112.394 5.54871 112.658 5.72906 112.999C5.90942 113.333 5.99959 113.717 5.99959 114.151C5.99959 114.592 5.90608 114.986 5.71904 115.333C5.53201 115.681 5.26816 115.954 4.92749 116.155C4.58682 116.349 4.19605 116.445 3.75519 116.445ZM3.70509 115.744C3.999 115.744 4.25951 115.681 4.48662 115.554C4.71373 115.42 4.89075 115.236 5.01767 115.003C5.14458 114.762 5.20804 114.488 5.20804 114.181C5.20804 113.874 5.14458 113.603 5.01767 113.369C4.89075 113.136 4.71373 112.952 4.48662 112.818C4.25951 112.685 3.999 112.618 3.70509 112.618C3.41118 112.618 3.15067 112.685 2.92355 112.818C2.69644 112.952 2.51943 113.136 2.39251 113.369C2.26559 113.603 2.20214 113.874 2.20214 114.181C2.20214 114.488 2.26559 114.762 2.39251 115.003C2.51943 115.236 2.69644 115.42 2.92355 115.554C3.15067 115.681 3.41118 115.744 3.70509 115.744ZM9.5226 116.445C8.71435 116.445 8.09981 116.135 7.67898 115.514C7.25816 114.892 7.04774 113.994 7.04774 112.818C7.04774 112.03 7.14126 111.369 7.3283 110.834C7.51533 110.293 7.79254 109.886 8.15993 109.612C8.534 109.338 8.98822 109.201 9.5226 109.201C10.3375 109.201 10.9521 109.508 11.3662 110.123C11.7871 110.731 11.9975 111.626 11.9975 112.808C11.9975 113.596 11.9039 114.261 11.7169 114.802C11.5299 115.343 11.2527 115.754 10.8853 116.035C10.5179 116.308 10.0637 116.445 9.5226 116.445ZM9.5226 115.734C10.0837 115.734 10.4979 115.497 10.765 115.023C11.0389 114.542 11.1759 113.804 11.1759 112.808C11.1759 111.806 11.0389 111.075 10.765 110.614C10.4979 110.146 10.0837 109.913 9.5226 109.913C8.96818 109.913 8.55404 110.146 8.28017 110.614C8.00629 111.082 7.86936 111.813 7.86936 112.808C7.86936 113.804 8.00629 114.542 8.28017 115.023C8.55404 115.497 8.96818 115.734 9.5226 115.734Z" fill="#111218"/>
<path opacity="0.7" d="M4.69704 152.747C4.57012 152.747 4.46992 152.71 4.39645 152.636C4.32297 152.563 4.28623 152.459 4.28623 152.326V151.164H1.41058C1.27699 151.164 1.17011 151.133 1.08995 151.073C1.01647 151.007 0.979736 150.913 0.979736 150.793C0.979736 150.719 0.996435 150.646 1.02983 150.572C1.06323 150.492 1.12335 150.392 1.21019 150.272L4.26619 145.823C4.32631 145.73 4.39311 145.659 4.46658 145.613C4.54006 145.566 4.6269 145.543 4.72709 145.543C4.83397 145.543 4.92415 145.576 4.99763 145.643C5.07778 145.709 5.11786 145.816 5.11786 145.963V150.462H5.8493C5.97621 150.462 6.07307 150.492 6.13987 150.552C6.20667 150.612 6.24007 150.699 6.24007 150.813C6.24007 150.926 6.20667 151.013 6.13987 151.073C6.07307 151.133 5.97621 151.164 5.8493 151.164H5.11786V152.326C5.11786 152.459 5.08112 152.563 5.00765 152.636C4.93417 152.71 4.83063 152.747 4.69704 152.747ZM4.28623 150.462V146.575H4.5267L1.72119 150.683V150.462H4.28623ZM9.5226 152.767C8.71435 152.767 8.09981 152.456 7.67898 151.835C7.25816 151.214 7.04774 150.315 7.04774 149.14C7.04774 148.351 7.14126 147.69 7.3283 147.156C7.51533 146.615 7.79254 146.207 8.15993 145.933C8.534 145.659 8.98822 145.522 9.5226 145.522C10.3375 145.522 10.9521 145.83 11.3662 146.444C11.7871 147.052 11.9975 147.947 11.9975 149.13C11.9975 149.918 11.9039 150.582 11.7169 151.123C11.5299 151.665 11.2527 152.075 10.8853 152.356C10.5179 152.63 10.0637 152.767 9.5226 152.767ZM9.5226 152.055C10.0837 152.055 10.4979 151.818 10.765 151.344C11.0389 150.863 11.1759 150.125 11.1759 149.13C11.1759 148.128 11.0389 147.396 10.765 146.935C10.4979 146.468 10.0837 146.234 9.5226 146.234C8.96818 146.234 8.55404 146.468 8.28017 146.935C8.00629 147.403 7.86936 148.134 7.86936 149.13C7.86936 150.125 8.00629 150.863 8.28017 151.344C8.55404 151.818 8.96818 152.055 9.5226 152.055Z" fill="#111218"/>
<path opacity="0.7" d="M1.80135 188.998C1.65439 188.998 1.54418 188.964 1.4707 188.898C1.4039 188.824 1.3705 188.727 1.3705 188.607C1.3705 188.534 1.3872 188.463 1.4206 188.397C1.46068 188.323 1.51412 188.25 1.58092 188.176L3.82532 185.771C4.16599 185.404 4.4098 185.067 4.55676 184.759C4.71039 184.446 4.78721 184.128 4.78721 183.808C4.78721 183.407 4.66364 183.103 4.41648 182.896C4.17601 182.682 3.82198 182.575 3.3544 182.575C3.05381 182.575 2.76992 182.622 2.50273 182.715C2.23554 182.809 1.97836 182.953 1.73121 183.146C1.64437 183.213 1.56422 183.243 1.49074 183.236C1.42394 183.23 1.36382 183.203 1.31039 183.156C1.25695 183.11 1.22021 183.049 1.20017 182.976C1.18013 182.902 1.18013 182.829 1.20017 182.756C1.22689 182.682 1.28033 182.615 1.36048 182.555C1.62099 182.341 1.93494 182.171 2.30233 182.044C2.66972 181.911 3.04379 181.844 3.42454 181.844C3.8988 181.844 4.29959 181.917 4.6269 182.064C4.95421 182.211 5.20136 182.428 5.36835 182.715C5.53535 182.996 5.61885 183.34 5.61885 183.747C5.61885 184.028 5.57209 184.305 5.47857 184.579C5.39173 184.846 5.2548 185.12 5.06776 185.401C4.88741 185.681 4.65028 185.972 4.35637 186.272L2.22218 188.527V188.296H5.59881C5.72572 188.296 5.81924 188.326 5.87936 188.387C5.94615 188.44 5.97955 188.524 5.97955 188.637C5.97955 188.757 5.94615 188.848 5.87936 188.908C5.81924 188.968 5.72572 188.998 5.59881 188.998H1.80135ZM9.5226 189.088C8.71435 189.088 8.09981 188.777 7.67898 188.156C7.25816 187.535 7.04774 186.636 7.04774 185.461C7.04774 184.673 7.14126 184.011 7.3283 183.477C7.51533 182.936 7.79254 182.528 8.15993 182.255C8.534 181.981 8.98822 181.844 9.5226 181.844C10.3375 181.844 10.9521 182.151 11.3662 182.766C11.7871 183.373 11.9975 184.269 11.9975 185.451C11.9975 186.239 11.9039 186.904 11.7169 187.445C11.5299 187.986 11.2527 188.397 10.8853 188.677C10.5179 188.951 10.0637 189.088 9.5226 189.088ZM9.5226 188.377C10.0837 188.377 10.4979 188.139 10.765 187.665C11.0389 187.184 11.1759 186.446 11.1759 185.451C11.1759 184.449 11.0389 183.717 10.765 183.257C10.4979 182.789 10.0837 182.555 9.5226 182.555C8.96818 182.555 8.55404 182.789 8.28017 183.257C8.00629 183.724 7.86936 184.456 7.86936 185.451C7.86936 186.446 8.00629 187.184 8.28017 187.665C8.55404 188.139 8.96818 188.377 9.5226 188.377Z" fill="#111218"/>
<path opacity="0.7" d="M8.27007 225.41C7.46182 225.41 6.84728 225.099 6.42645 224.478C6.00563 223.856 5.79521 222.958 5.79521 221.782C5.79521 220.994 5.88873 220.333 6.07576 219.798C6.2628 219.257 6.54001 218.85 6.9074 218.576C7.28147 218.302 7.73569 218.165 8.27007 218.165C9.08501 218.165 9.69955 218.473 10.1137 219.087C10.5345 219.695 10.7449 220.59 10.7449 221.772C10.7449 222.561 10.6514 223.225 10.4644 223.766C10.2773 224.307 10.0001 224.718 9.63275 224.999C9.26536 225.273 8.81114 225.41 8.27007 225.41ZM8.27007 224.698C8.83118 224.698 9.24532 224.461 9.51251 223.987C9.78638 223.506 9.92332 222.768 9.92332 221.772C9.92332 220.77 9.78638 220.039 9.51251 219.578C9.24532 219.11 8.83118 218.877 8.27007 218.877C7.71565 218.877 7.30151 219.11 7.02763 219.578C6.75376 220.046 6.61683 220.777 6.61683 221.772C6.61683 222.768 6.75376 223.506 7.02763 223.987C7.30151 224.461 7.71565 224.698 8.27007 224.698Z" fill="#111218"/>
</g>
<g filter="url(#filter0_d_524_2783)">
<path d="M22.2368 123.306L26.4198 129.148C30.6272 134.771 39.1154 146.781 47.4324 155.352C55.7738 164.251 64.0663 169.71 72.6279 158.246C80.9449 146.781 89.2619 117.301 97.8235 117.465C106.116 117.301 114.457 146.781 122.774 155.352C131.263 164.251 139.653 152.24 147.97 158.246C156.434 164.251 164.848 187.18 173.165 178.609C181.58 169.71 190.044 129.311 198.361 132.041C206.751 134.771 215.24 156.077 223.557 179.17C231.898 202.481 240.191 202.481 248.752 187.904C258.232 173.952 262.86 168.494 273.054 160.81C283.807 153.758 290.582 164.251 298.899 152.404C307.387 140.776 315.777 105.837 324.094 99.9952C332.558 94.3721 340.973 117.301 349.29 120.413C357.705 123.306 366.168 105.837 370.327 97.1018L374.485 88.3669" stroke="#04c762" stroke-width="2.8403" stroke-linecap="round"/>
</g>
<g filter="url(#filter1_d_524_2783)">
<ellipse cx="97.0247" cy="116.929" rx="5.06232" ry="5.01832" fill="#111218"/>
<path d="M101.022 116.929C101.022 119.103 99.2411 120.882 97.0247 120.882C94.8083 120.882 93.0275 119.103 93.0275 116.929C93.0275 114.754 94.8083 112.976 97.0247 112.976C99.2411 112.976 101.022 114.754 101.022 116.929Z" stroke="#00dd7d" stroke-width="2.13023"/>
</g>
<g filter="url(#filter2_d_524_2783)">
<ellipse cx="198.443" cy="131.417" rx="5.06232" ry="5.01832" fill="#111218"/>
<path d="M202.44 131.417C202.44 133.592 200.66 135.37 198.443 135.37C196.227 135.37 194.446 133.592 194.446 131.417C194.446 129.242 196.227 127.464 198.443 127.464C200.66 127.464 202.44 129.242 202.44 131.417Z" stroke="#00dd7d" stroke-width="2.13023"/>
</g>
<g filter="url(#filter3_d_524_2783)">
<ellipse cx="145.017" cy="156.772" rx="5.06232" ry="5.01832" fill="#111218"/>
<path d="M149.015 156.772C149.015 158.946 147.234 160.725 145.017 160.725C142.801 160.725 141.02 158.946 141.02 156.772C141.02 154.597 142.801 152.819 145.017 152.819C147.234 152.819 149.015 154.597 149.015 156.772Z" stroke="#00dd7d" stroke-width="2.13023"/>
</g>
<line x1="258.904" y1="220.329" x2="258.904" y2="103.85" stroke="#00dd7d" stroke-width="0.710075" stroke-dasharray="1.42 4.97"/>
<defs>
<filter id="filter0_d_524_2783" x="17.9761" y="86.9465" width="360.77" height="118.091" filterUnits="userSpaceOnUse" color-interpolation-filters="sRGB">
<feFlood flood-opacity="0" result="BackgroundImageFix"/>
<feColorMatrix in="SourceAlpha" type="matrix" values="0 0 0 0 0 0 0 0 0 0 0 0 0 0 0 0 0 0 127 0" result="hardAlpha"/>
<feOffset dy="2.8403"/>
<feGaussianBlur stdDeviation="1.42015"/>
<feColorMatrix type="matrix" values="0 0 0 0 0.156863 0 0 0 0 0.635294 0 0 0 0 0.388235 0 0 0 0.18 0"/>
<feBlend mode="normal" in2="BackgroundImageFix" result="effect1_dropShadow_524_2783"/>
<feBlend mode="normal" in="SourceGraphic" in2="effect1_dropShadow_524_2783" result="shape"/>
</filter>
<filter id="filter1_d_524_2783" x="89.1221" y="111.91" width="15.8051" height="15.7172" filterUnits="userSpaceOnUse" color-interpolation-filters="sRGB">
<feFlood flood-opacity="0" result="BackgroundImageFix"/>
<feColorMatrix in="SourceAlpha" type="matrix" values="0 0 0 0 0 0 0 0 0 0 0 0 0 0 0 0 0 0 127 0" result="hardAlpha"/>
<feOffset dy="2.8403"/>
<feGaussianBlur stdDeviation="1.42015"/>
<feColorMatrix type="matrix" values="0 0 0 0 0.156863 0 0 0 0 0.635294 0 0 0 0 0.388235 0 0 0 0.03 0"/>
<feBlend mode="normal" in2="BackgroundImageFix" result="effect1_dropShadow_524_2783"/>
<feBlend mode="normal" in="SourceGraphic" in2="effect1_dropShadow_524_2783" result="shape"/>
</filter>
<filter id="filter2_d_524_2783" x="190.541" y="126.399" width="15.8051" height="15.7172" filterUnits="userSpaceOnUse" color-interpolation-filters="sRGB">
<feFlood flood-opacity="0" result="BackgroundImageFix"/>
<feColorMatrix in="SourceAlpha" type="matrix" values="0 0 0 0 0 0 0 0 0 0 0 0 0 0 0 0 0 0 127 0" result="hardAlpha"/>
<feOffset dy="2.8403"/>
<feGaussianBlur stdDeviation="1.42015"/>
<feColorMatrix type="matrix" values="0 0 0 0 0.156863 0 0 0 0 0.635294 0 0 0 0 0.388235 0 0 0 0.03 0"/>
<feBlend mode="normal" in2="BackgroundImageFix" result="effect1_dropShadow_524_2783"/>
<feBlend mode="normal" in="SourceGraphic" in2="effect1_dropShadow_524_2783" result="shape"/>
</filter>
<filter id="filter3_d_524_2783" x="137.115" y="151.753" width="15.8051" height="15.7172" filterUnits="userSpaceOnUse" color-interpolation-filters="sRGB">
<feFlood flood-opacity="0" result="BackgroundImageFix"/>
<feColorMatrix in="SourceAlpha" type="matrix" values="0 0 0 0 0 0 0 0 0 0 0 0 0 0 0 0 0 0 127 0" result="hardAlpha"/>
<feOffset dy="2.8403"/>
<feGaussianBlur stdDeviation="1.42015"/>
<feColorMatrix type="matrix" values="0 0 0 0 0.156863 0 0 0 0 0.635294 0 0 0 0 0.388235 0 0 0 0.12 0"/>
<feBlend mode="normal" in2="BackgroundImageFix" result="effect1_dropShadow_524_2783"/>
<feBlend mode="normal" in="SourceGraphic" in2="effect1_dropShadow_524_2783" result="shape"/>
</filter>
</defs>
</svg>
