<svg width="300" height="380" viewBox="0 0 300 380" fill="none" xmlns="http://www.w3.org/2000/svg">
<g clip-path="url(#clip0_524_2823)">
<rect x="131.343" y="51" width="52.691" height="54.042" rx="9.45736" fill="#313131"/>
<g clip-path="url(#clip1_524_2823)">
<path d="M158 99C169.598 99 179 89.598 179 78C179 66.402 169.598 57 158 57C146.402 57 137 66.402 137 78C137 89.598 146.402 99 158 99Z" fill="#26A17B"/>
<path fill-rule="evenodd" clip-rule="evenodd" d="M160.523 79.8154V79.8128C160.379 79.8233 159.634 79.8679 157.974 79.8679C156.648 79.8679 155.715 79.8286 155.387 79.8128V79.8168C150.284 79.5923 146.475 78.7038 146.475 77.6406C146.475 76.5788 150.284 75.6903 155.387 75.4619V78.9321C155.72 78.9558 156.676 79.0122 157.996 79.0122C159.581 79.0122 160.375 78.9466 160.523 78.9334V75.4645C165.615 75.6916 169.415 76.5801 169.415 77.6406C169.415 78.7038 165.615 79.5897 160.523 79.8154ZM160.523 75.1036V71.9982H167.629V67.2627H148.281V71.9982H155.387V75.1023C149.612 75.3674 145.269 76.5119 145.269 77.8821C145.269 79.2524 149.612 80.3956 155.387 80.662V90.6134H160.523V80.6594C166.289 80.3943 170.621 79.2511 170.621 77.8821C170.621 76.5132 166.289 75.37 160.523 75.1036Z" fill="white"/>
</g>
<rect x="57.479" y="52.437" width="51.733" height="53.084" rx="8.97835" stroke="#04c762" stroke-width="0.958018" stroke-dasharray="3.83 3.83"/>
<g clip-path="url(#clip2_524_2823)">
<path d="M152 247C179.614 247 202 224.614 202 197C202 169.386 179.614 147 152 147C124.386 147 102 169.386 102 197C102 224.614 124.386 247 152 247Z" fill="#F4B731"/>
<path fill-rule="evenodd" clip-rule="evenodd" d="M130.991 172H151.466C163.919 172 173.359 178.613 176.872 188.231H183.25V194.047H178.216C178.312 194.966 178.363 195.903 178.363 196.853V196.997C178.363 198.066 178.3 199.122 178.175 200.153H183.25V205.966H176.75C173.147 215.453 163.781 222 151.469 222H130.991V205.966H123.875V200.153H130.991V194.047H123.875V188.234H130.991V172ZM136.712 205.966V216.784H151.462C160.569 216.784 167.331 212.45 170.478 205.966H136.712ZM172.231 200.153H136.712V194.047H172.244C172.372 195.006 172.441 195.991 172.441 196.997V197.138C172.441 198.166 172.369 199.169 172.231 200.15V200.153ZM151.469 177.203C160.612 177.203 167.397 181.653 170.525 188.228H136.712V177.206H151.462L151.469 177.203Z" fill="white"/>
</g>
<path d="M82.3111 85.9189V73.6439H83.9691V85.9189H82.3111ZM76.9978 80.6056V78.9573H89.2824V80.6056H76.9978Z" fill="#04c762"/>
<rect x="202" y="51" width="52.691" height="54.042" rx="9.45736" fill="#313131"/>
<path d="M228 99C239.598 99 249 89.598 249 78C249 66.402 239.598 57 228 57C216.402 57 207 66.402 207 78C207 89.598 216.402 99 228 99Z" fill="#627EEA"/>
<path d="M228.654 62.25V73.8919L238.494 78.2887L228.654 62.25Z" fill="white" fill-opacity="0.602"/>
<path d="M228.654 62.25L218.812 78.2887L228.654 73.8919V62.25Z" fill="white"/>
<path d="M228.654 85.8333V93.7438L238.5 80.1213L228.654 85.8333Z" fill="white" fill-opacity="0.602"/>
<path d="M228.654 93.7438V85.832L218.812 80.1213L228.654 93.7438Z" fill="white"/>
<path d="M228.654 84.0021L238.494 78.2888L228.654 73.8945V84.0021Z" fill="white" fill-opacity="0.2"/>
<path d="M218.812 78.2888L228.654 84.0021V73.8945L218.812 78.2888Z" fill="white" fill-opacity="0.602"/>
</g>
<defs>
<clipPath id="clip0_524_2823">
<rect width="300" height="380" rx="24" fill="white"/>
</clipPath>
<clipPath id="clip1_524_2823">
<rect width="42" height="42" fill="white" transform="translate(137 57)"/>
</clipPath>
<clipPath id="clip2_524_2823">
<rect width="100" height="100" fill="white" transform="translate(102 147)"/>
</clipPath>
</defs>
</svg>
